<svg width="149" height="95" viewBox="0 0 149 95" fill="none" xmlns="http://www.w3.org/2000/svg">
<path fill-rule="evenodd" clip-rule="evenodd" d="M0 36.1991H8.01364V0.653687H0V36.1991Z" fill="black"/>
<path fill-rule="evenodd" clip-rule="evenodd" d="M16.3533 0.654541H24.5851L33.8533 18.3182L37.3442 26.1682H37.5624C37.2351 22.4091 36.5805 17.3909 36.5805 13.1954V0.654541H44.2124V36.2H35.9805L26.7124 18.4818L23.2215 10.7409H23.0033C23.3305 14.6682 23.9851 19.4091 23.9851 23.6045V36.2H16.3533V0.654541Z" fill="black"/>
<path fill-rule="evenodd" clip-rule="evenodd" d="M65.1654 29.9845C69.5245 29.9845 71.7609 28.4573 71.7609 25.1845C71.7609 22.08 69.5791 20.8254 65.1654 20.8254H60.6381V29.9845H65.1654ZM64.4018 14.8845C68.3245 14.8845 70.0154 13.2482 70.0154 10.6845C70.0154 7.90726 68.2154 6.87089 64.4563 6.87089H60.6381V14.8845H64.4018ZM52.6245 0.65271H64.7836C72.1427 0.65271 77.8654 2.67089 77.8654 9.48453C77.8654 12.6482 76.1245 16.08 73.2336 17.1754V17.3891C76.8291 18.3209 79.6109 20.9891 79.6109 25.73C79.6109 32.9845 73.5063 36.1982 65.82 36.1982H52.6245V0.65271Z" fill="black"/>
<path fill-rule="evenodd" clip-rule="evenodd" d="M108.063 18.2636C108.063 11.1773 105.009 6.92273 100.159 6.92273C95.3043 6.92273 92.2543 11.1773 92.2543 18.2636C92.2543 25.4045 95.3043 29.9273 100.159 29.9273C105.009 29.9273 108.063 25.4045 108.063 18.2636M84.0225 18.2636C84.0225 6.65 90.5634 0 100.159 0C109.754 0 116.295 6.70909 116.295 18.2636C116.295 29.8773 109.754 36.8545 100.159 36.8545C90.5634 36.8545 84.0225 29.8773 84.0225 18.2636" fill="black"/>
<path fill-rule="evenodd" clip-rule="evenodd" d="M128.418 17.9372L119.15 0.655396H128.091L131.2 7.35994C132.018 8.9963 132.777 10.8463 133.759 13.0872H133.977C134.796 10.8463 135.559 8.9963 136.268 7.35994L139.105 0.655396H147.664L138.45 18.319L148.264 36.2009H139.323L135.777 28.9463C134.905 27.0963 134.091 25.2963 133.105 23.1145H132.886C132.073 25.2963 131.255 27.0963 130.491 28.9463L127.164 36.2009H118.55L128.418 17.9372Z" fill="black"/>
<path fill-rule="evenodd" clip-rule="evenodd" d="M11.3037 70.6941L13.081 59.1804L18.4128 54.9304C21.6083 55.7531 24.6719 56.6441 27.6083 57.5986C30.5446 58.5531 33.5855 59.6986 36.7265 61.035L39.3537 55.935L43.6037 55.0077L44.531 55.7804C44.1719 56.7622 43.3583 58.0759 42.0992 59.7213C40.8355 61.3713 39.1992 63.2259 37.1901 65.285C33.9446 68.585 30.6355 71.6713 27.2628 74.5577C23.8901 77.4441 20.6037 80.4031 17.4083 83.4441L19.4946 84.9895C21.2992 86.2759 23.1765 87.2668 25.1355 87.9622C27.0946 88.6622 28.9219 89.0077 30.6219 89.0077C31.7037 89.0077 32.7219 88.8531 33.6765 88.5441C34.6265 88.235 35.5174 87.8259 36.3401 87.3077C35.5174 86.3304 34.9219 85.5031 34.5628 84.835C34.2037 84.1668 34.0219 83.4713 34.0219 82.7486C34.0219 81.5122 34.3946 80.535 35.1446 79.8122C35.8901 79.0941 36.8037 78.6804 37.8855 78.5759C38.7083 78.885 39.3401 79.4941 39.781 80.3895C40.2174 81.2941 40.4355 82.2077 40.4355 83.135C40.4355 84.9895 39.8174 86.7804 38.581 88.5031C37.3446 90.2304 35.7855 91.635 33.9083 92.7168C32.0265 93.7986 30.081 94.3395 28.0719 94.3395C26.1674 94.3395 24.131 93.8486 21.9674 92.8713C19.8037 91.8941 18.0037 90.5259 16.5583 88.7759L14.6265 86.4577L11.6901 92.5622L7.20827 93.0259L6.59009 92.5622C7.36282 91.2259 8.21282 89.9122 9.14009 88.6213C10.0674 87.335 11.331 85.8895 12.9265 84.2941C16.2765 81.0486 19.7128 77.8713 23.2446 74.7531C26.7719 71.635 30.2355 68.3486 33.6355 64.8986C30.9583 64.0213 28.4083 63.2622 25.9855 62.6213C23.5628 61.9759 20.8083 61.3168 17.7174 60.6486L14.4719 71.1577L11.3037 70.6941Z" fill="black"/>
<path fill-rule="evenodd" clip-rule="evenodd" d="M64.2978 58.2536C63.1114 58.2536 61.8114 58.7173 60.3978 59.6445C58.9796 60.5718 57.6023 61.8582 56.2614 63.5082C54.9205 65.1582 53.8023 67.0491 52.9023 69.1855C51.9978 71.3264 51.4432 73.6036 51.2387 76.0264C55.5114 74.79 58.925 73.4127 61.475 71.89C64.025 70.3718 65.8569 68.8264 66.9614 67.2536C68.0705 65.6855 68.625 64.2036 68.625 62.8127C68.625 61.3718 68.225 60.2491 67.425 59.4491C66.6296 58.6536 65.5841 58.2536 64.2978 58.2536M57.4978 93.5673C54.0978 93.5673 51.3023 92.4082 49.116 90.09C46.925 87.7718 45.8296 84.14 45.8296 79.1945C45.8296 76.1036 46.3705 73.1036 47.4523 70.19C48.5341 67.2809 50.0023 64.6809 51.8569 62.3855C53.7114 60.0945 55.8614 58.2809 58.3114 56.94C60.7569 55.6036 63.3205 54.9309 65.9978 54.9309C68.5205 54.9309 70.4432 55.5491 71.7569 56.7855C73.0705 58.0218 73.725 59.7718 73.725 62.04C73.725 63.69 73.0796 65.5036 71.7932 67.4855C70.5069 69.4718 68.225 71.4673 64.9569 73.4764C61.6841 75.4855 57.1114 77.34 51.2387 79.04C51.3932 82.3355 52.166 84.6945 53.5569 86.1082C54.9478 87.5264 56.825 88.2355 59.1978 88.2355C61.6205 88.2355 63.7069 87.6173 65.4569 86.3809C67.2069 85.1445 68.5978 83.8809 69.6296 82.5945L71.4069 83.9855C69.8069 86.6127 67.8023 88.8673 65.3796 90.7445C62.9569 92.6264 60.3296 93.5673 57.4978 93.5673" fill="black"/>
<path fill-rule="evenodd" clip-rule="evenodd" d="M79.2884 92.5622L85.8565 61.5759L78.2065 61.1122L78.5156 58.8713L91.2656 54.9304L92.2702 55.7031L90.5702 66.0577C91.702 64.0986 92.902 62.285 94.1611 60.6122C95.4247 58.9395 96.752 57.5713 98.1429 56.5122C99.5338 55.4577 100.897 54.9304 102.238 54.9304C103.32 54.9304 104.325 55.0986 105.252 55.435C106.179 55.7668 106.902 56.3759 107.416 57.2486C107.366 58.5395 106.993 59.5804 106.293 60.3759C105.602 61.1759 104.607 61.5759 103.32 61.5759C102.652 61.5759 101.916 61.385 101.12 60.9986C100.316 60.6122 99.5338 60.135 98.7611 59.5668C96.9065 61.1122 95.2065 62.9395 93.6611 65.0531C92.1156 67.1668 90.6475 69.585 89.2565 72.3168L88.3293 76.335C87.7611 79.0168 87.2338 81.7031 86.7475 84.4122C86.2565 87.1122 85.752 89.8304 85.2384 92.5622L80.0611 93.1804L79.2884 92.5622Z" fill="black"/>
<path fill-rule="evenodd" clip-rule="evenodd" d="M118.85 90.4759C120.755 90.4759 122.482 89.885 124.027 88.6986C125.573 87.5168 126.9 85.9168 128.009 83.9077C129.114 81.8986 129.977 79.6577 130.595 77.185C131.214 74.7122 131.523 72.1895 131.523 69.6122C131.523 65.4395 130.868 62.4622 129.55 60.685C128.236 58.9122 126.527 58.0213 124.414 58.0213C121.991 58.0213 119.791 58.9759 117.809 60.8804C115.823 62.785 114.264 65.3213 113.132 68.4941C112 71.6577 111.432 75.1759 111.432 79.0395C111.432 83.1077 112.127 86.0304 113.518 87.8122C114.909 89.5895 116.686 90.4759 118.85 90.4759M118 93.5668C115.632 93.5668 113.468 93.0486 111.509 92.0213C109.55 90.9895 107.995 89.4577 106.832 87.4259C105.677 85.3895 105.095 82.9031 105.095 79.9668C105.095 76.4622 105.623 73.2077 106.682 70.1941C107.736 67.1804 109.191 64.5259 111.045 62.235C112.9 59.9395 115.05 58.1486 117.5 56.8622C119.945 55.5759 122.536 54.9304 125.264 54.9304C128.923 54.9304 131.923 56.0895 134.268 58.4077C136.609 60.7259 137.782 64.0759 137.782 68.4531C137.782 71.8031 137.268 74.9804 136.236 77.9941C135.205 81.0077 133.777 83.6895 131.95 86.0304C130.118 88.3759 128.018 90.2168 125.65 91.5577C123.282 92.8986 120.732 93.5668 118 93.5668" fill="black"/>
</svg>
