<svg width="150" height="100" viewBox="0 0 150 100" fill="none" xmlns="http://www.w3.org/2000/svg">
<path fill-rule="evenodd" clip-rule="evenodd" d="M0 40.745H8.01364V5.19954H0V40.745Z" fill="white"/>
<path fill-rule="evenodd" clip-rule="evenodd" d="M16.3531 5.20045H24.585L33.8531 22.8641L37.3441 30.7141H37.5622C37.235 26.955 36.5804 21.9368 36.5804 17.7414V5.20045H44.2122V40.7459H35.9804L26.7122 23.0277L23.2213 15.2868H23.0031C23.3304 19.2141 23.985 23.955 23.985 28.1505V40.7459H16.3531V5.20045Z" fill="white"/>
<path fill-rule="evenodd" clip-rule="evenodd" d="M65.1654 34.5305C69.5245 34.5305 71.7609 33.0032 71.7609 29.7305C71.7609 26.6259 69.5791 25.3714 65.1654 25.3714H60.6381V34.5305H65.1654ZM64.4018 19.4305C68.3245 19.4305 70.0154 17.7941 70.0154 15.2305C70.0154 12.4532 68.2154 11.4168 64.4563 11.4168H60.6381V19.4305H64.4018ZM52.6245 5.19864H64.7836C72.1427 5.19864 77.8654 7.21682 77.8654 14.0305C77.8654 17.1941 76.1245 20.6259 73.2336 21.7214V21.935C76.8291 22.8668 79.6109 25.535 79.6109 30.2759C79.6109 37.5305 73.5063 40.7441 65.82 40.7441H52.6245V5.19864Z" fill="white"/>
<path fill-rule="evenodd" clip-rule="evenodd" d="M108.063 22.8095C108.063 15.7232 105.009 11.4686 100.159 11.4686C95.304 11.4686 92.254 15.7232 92.254 22.8095C92.254 29.9505 95.304 34.4732 100.159 34.4732C105.009 34.4732 108.063 29.9505 108.063 22.8095M84.0222 22.8095C84.0222 11.1959 90.5631 4.54591 100.159 4.54591C109.754 4.54591 116.295 11.255 116.295 22.8095C116.295 34.4232 109.754 41.4005 100.159 41.4005C90.5631 41.4005 84.0222 34.4232 84.0222 22.8095" fill="white"/>
<path fill-rule="evenodd" clip-rule="evenodd" d="M128.418 22.4832L119.15 5.20137H128.091L131.2 11.9059C132.018 13.5423 132.777 15.3923 133.759 17.6332H133.977C134.795 15.3923 135.559 13.5423 136.268 11.9059L139.104 5.20137H147.664L138.45 22.865L148.264 40.7468H139.323L135.777 33.4923C134.904 31.6423 134.091 29.8423 133.104 27.6605H132.886C132.073 29.8423 131.254 31.6423 130.491 33.4923L127.164 40.7468H118.55L128.418 22.4832Z" fill="white"/>
<path fill-rule="evenodd" clip-rule="evenodd" d="M11.3036 75.24L13.0809 63.7264L18.4127 59.4764C21.6081 60.2991 24.6718 61.19 27.6081 62.1446C30.5445 63.0991 33.5854 64.2446 36.7263 65.5809L39.3536 60.4809L43.6036 59.5537L44.5309 60.3264C44.1718 61.3082 43.3581 62.6218 42.0991 64.2673C40.8354 65.9173 39.1991 67.7718 37.19 69.8309C33.9445 73.1309 30.6354 76.2173 27.2627 79.1037C23.89 81.99 20.6036 84.9491 17.4081 87.99L19.4945 89.5355C21.2991 90.8218 23.1763 91.8127 25.1354 92.5082C27.0945 93.2082 28.9218 93.5537 30.6218 93.5537C31.7036 93.5537 32.7218 93.3991 33.6763 93.09C34.6263 92.7809 35.5172 92.3718 36.34 91.8537C35.5172 90.8764 34.9218 90.0491 34.5627 89.3809C34.2036 88.7127 34.0218 88.0173 34.0218 87.2946C34.0218 86.0582 34.3945 85.0809 35.1445 84.3582C35.89 83.64 36.8036 83.2264 37.8854 83.1218C38.7081 83.4309 39.34 84.04 39.7809 84.9355C40.2172 85.84 40.4354 86.7537 40.4354 87.6809C40.4354 89.5355 39.8172 91.3264 38.5809 93.0491C37.3445 94.7764 35.7854 96.1809 33.9081 97.2627C32.0263 98.3446 30.0809 98.8855 28.0718 98.8855C26.1672 98.8855 24.1309 98.3946 21.9672 97.4173C19.8036 96.44 18.0036 95.0718 16.5581 93.3218L14.6263 91.0037L11.69 97.1082L7.20815 97.5718L6.58997 97.1082C7.36269 95.7718 8.21269 94.4582 9.13997 93.1673C10.0672 91.8809 11.3309 90.4355 12.9263 88.84C16.2763 85.5946 19.7127 82.4173 23.2445 79.2991C26.7718 76.1809 30.2354 72.8946 33.6354 69.4446C30.9581 68.5673 28.4081 67.8082 25.9854 67.1673C23.5627 66.5218 20.8081 65.8627 17.7172 65.1946L14.4718 75.7037L11.3036 75.24Z" fill="white"/>
<path fill-rule="evenodd" clip-rule="evenodd" d="M64.2976 62.7995C63.1113 62.7995 61.8113 63.2632 60.3976 64.1904C58.9795 65.1177 57.6022 66.4041 56.2613 68.0541C54.9204 69.7041 53.8022 71.595 52.9022 73.7314C51.9976 75.8723 51.4431 78.1495 51.2386 80.5723C55.5113 79.3359 58.9249 77.9586 61.4749 76.4359C64.0249 74.9177 65.8567 73.3723 66.9613 71.7995C68.0704 70.2314 68.6249 68.7495 68.6249 67.3586C68.6249 65.9177 68.2249 64.795 67.4249 63.995C66.6295 63.1995 65.584 62.7995 64.2976 62.7995M57.4976 98.1132C54.0976 98.1132 51.3022 96.9541 49.1158 94.6359C46.9249 92.3177 45.8295 88.6859 45.8295 83.7404C45.8295 80.6495 46.3704 77.6495 47.4522 74.7359C48.534 71.8268 50.0022 69.2268 51.8567 66.9314C53.7113 64.6404 55.8613 62.8268 58.3113 61.4859C60.7567 60.1495 63.3204 59.4768 65.9977 59.4768C68.5204 59.4768 70.4431 60.095 71.7567 61.3314C73.0704 62.5677 73.7249 64.3177 73.7249 66.5859C73.7249 68.2359 73.0795 70.0495 71.7931 72.0314C70.5067 74.0177 68.2249 76.0132 64.9567 78.0223C61.684 80.0314 57.1113 81.8859 51.2386 83.5859C51.3931 86.8814 52.1658 89.2404 53.5567 90.6541C54.9476 92.0723 56.8249 92.7814 59.1976 92.7814C61.6204 92.7814 63.7067 92.1632 65.4567 90.9268C67.2067 89.6904 68.5976 88.4268 69.6295 87.1404L71.4067 88.5314C69.8067 91.1586 67.8022 93.4132 65.3795 95.2904C62.9567 97.1723 60.3295 98.1132 57.4976 98.1132" fill="white"/>
<path fill-rule="evenodd" clip-rule="evenodd" d="M79.2881 97.1082L85.8563 66.1218L78.2063 65.6582L78.5154 63.4173L91.2654 59.4764L92.2699 60.2491L90.5699 70.6037C91.7018 68.6446 92.9018 66.8309 94.1608 65.1582C95.4245 63.4855 96.7518 62.1173 98.1427 61.0582C99.5336 60.0037 100.897 59.4764 102.238 59.4764C103.32 59.4764 104.324 59.6446 105.252 59.9809C106.179 60.3127 106.902 60.9218 107.415 61.7946C107.365 63.0855 106.993 64.1264 106.293 64.9218C105.602 65.7218 104.606 66.1218 103.32 66.1218C102.652 66.1218 101.915 65.9309 101.12 65.5446C100.315 65.1582 99.5336 64.6809 98.7608 64.1127C96.9063 65.6582 95.2063 67.4855 93.6608 69.5991C92.1154 71.7127 90.6472 74.1309 89.2563 76.8627L88.329 80.8809C87.7608 83.5627 87.2336 86.2491 86.7472 88.9582C86.2563 91.6582 85.7518 94.3764 85.2381 97.1082L80.0608 97.7264L79.2881 97.1082Z" fill="white"/>
<path fill-rule="evenodd" clip-rule="evenodd" d="M118.85 95.0218C120.755 95.0218 122.482 94.4309 124.027 93.2446C125.573 92.0627 126.9 90.4627 128.009 88.4537C129.114 86.4446 129.977 84.2037 130.595 81.7309C131.214 79.2582 131.523 76.7355 131.523 74.1582C131.523 69.9855 130.868 67.0082 129.55 65.2309C128.236 63.4582 126.527 62.5673 124.414 62.5673C121.991 62.5673 119.791 63.5218 117.809 65.4264C115.823 67.3309 114.264 69.8673 113.132 73.04C112 76.2037 111.432 79.7218 111.432 83.5855C111.432 87.6537 112.127 90.5764 113.518 92.3582C114.909 94.1355 116.686 95.0218 118.85 95.0218M118 98.1127C115.632 98.1127 113.468 97.5946 111.509 96.5673C109.55 95.5355 107.995 94.0037 106.832 91.9718C105.677 89.9355 105.095 87.4491 105.095 84.5127C105.095 81.0082 105.623 77.7537 106.682 74.74C107.736 71.7264 109.191 69.0718 111.045 66.7809C112.9 64.4855 115.05 62.6946 117.5 61.4082C119.945 60.1218 122.536 59.4764 125.264 59.4764C128.923 59.4764 131.923 60.6355 134.268 62.9537C136.609 65.2718 137.782 68.6218 137.782 72.9991C137.782 76.3491 137.268 79.5264 136.236 82.54C135.205 85.5537 133.777 88.2355 131.95 90.5764C130.118 92.9218 128.018 94.7627 125.65 96.1037C123.282 97.4446 120.732 98.1127 118 98.1127" fill="white"/>
</svg>
