<svg width="133" height="18" viewBox="0 0 133 18" fill="none" xmlns="http://www.w3.org/2000/svg">
<path fill-rule="evenodd" clip-rule="evenodd" d="M0 16.5579H3.526V0.919861H0V16.5579Z" fill="white"/>
<path fill-rule="evenodd" clip-rule="evenodd" d="M7.19531 0.917847H10.8173L14.8953 8.68985L16.4313 12.1438H16.5273C16.3833 10.4898 16.0953 8.28185 16.0953 6.43585V0.917847H19.4533V16.5578H15.8313L11.7533 8.76185L10.2173 5.35585H10.1213C10.2653 7.08385 10.5533 9.16985 10.5533 11.0158V16.5578H7.19531V0.917847Z" fill="white"/>
<path fill-rule="evenodd" clip-rule="evenodd" d="M28.6728 13.8231C30.5908 13.8231 31.5748 13.1511 31.5748 11.7111C31.5748 10.3451 30.6148 9.79305 28.6728 9.79305H26.6808V13.8231H28.6728ZM28.3368 7.17905C30.0628 7.17905 30.8068 6.45905 30.8068 5.33105C30.8068 4.10905 30.0148 3.65305 28.3608 3.65305H26.6808V7.17905H28.3368ZM23.1548 0.917053H28.5048C31.7428 0.917053 34.2608 1.80505 34.2608 4.80305C34.2608 6.19505 33.4948 7.70505 32.2228 8.18705V8.28105C33.8048 8.69105 35.0288 9.86505 35.0288 11.9511C35.0288 15.1431 32.3428 16.5571 28.9608 16.5571H23.1548V0.917053Z" fill="white"/>
<path fill-rule="evenodd" clip-rule="evenodd" d="M47.5477 8.66585C47.5477 5.54785 46.2037 3.67585 44.0697 3.67585C41.9337 3.67585 40.5917 5.54785 40.5917 8.66585C40.5917 11.8079 41.9337 13.7979 44.0697 13.7979C46.2037 13.7979 47.5477 11.8079 47.5477 8.66585M36.9697 8.66585C36.9697 3.55585 39.8477 0.629852 44.0697 0.629852C48.2917 0.629852 51.1697 3.58185 51.1697 8.66585C51.1697 13.7759 48.2917 16.8459 44.0697 16.8459C39.8477 16.8459 36.9697 13.7759 36.9697 8.66585" fill="white"/>
<path fill-rule="evenodd" clip-rule="evenodd" d="M56.5039 8.52224L52.4259 0.918243H56.3599L57.7279 3.86824C58.0879 4.58824 58.4219 5.40224 58.8539 6.38824H58.9499C59.3099 5.40224 59.6459 4.58824 59.9579 3.86824L61.2059 0.918243H64.9719L60.9179 8.69024L65.2359 16.5582H61.2999L59.7419 13.3662C59.3579 12.5522 58.9979 11.7602 58.5659 10.8002H58.4699C58.1119 11.7602 57.7519 12.5522 57.4159 13.3662L55.9519 16.5582H52.1619L56.5039 8.52224Z" fill="white"/>
<mask id="mask0" mask-type="alpha" maskUnits="userSpaceOnUse" x="74" y="-1" width="18" height="19">
<path fill-rule="evenodd" clip-rule="evenodd" d="M74.3828 -0.000152588H91.0768V17.3394H74.3828V-0.000152588Z" fill="white"/>
</mask>
<g mask="url(#mask0)">
<path fill-rule="evenodd" clip-rule="evenodd" d="M76.4568 6.93545L77.2388 1.86945L79.5848 -0.000549316C80.9908 0.361451 82.3388 0.753451 83.6308 1.17345C84.9228 1.59345 86.2608 2.09745 87.6428 2.68545L88.7988 0.441451L90.6688 0.0334507L91.0768 0.373451C90.9188 0.805451 90.5608 1.38345 90.0068 2.10745C89.4508 2.83345 88.7308 3.64945 87.8468 4.55545C86.4188 6.00745 84.9628 7.36545 83.4788 8.63545C81.9948 9.90545 80.5488 11.2075 79.1428 12.5455L80.0608 13.2255C80.8548 13.7915 81.6808 14.2275 82.5428 14.5335C83.4048 14.8415 84.2088 14.9935 84.9568 14.9935C85.4328 14.9935 85.8808 14.9255 86.3008 14.7895C86.7188 14.6535 87.1108 14.4735 87.4728 14.2455C87.1108 13.8155 86.8488 13.4515 86.6908 13.1575C86.5328 12.8635 86.4528 12.5575 86.4528 12.2395C86.4528 11.6955 86.6168 11.2655 86.9468 10.9475C87.2748 10.6315 87.6768 10.4495 88.1528 10.4035C88.5148 10.5395 88.7928 10.8075 88.9868 11.2015C89.1788 11.5995 89.2748 12.0015 89.2748 12.4095C89.2748 13.2255 89.0028 14.0135 88.4588 14.7715C87.9148 15.5315 87.2288 16.1495 86.4028 16.6255C85.5748 17.1015 84.7188 17.3395 83.8348 17.3395C82.9968 17.3395 82.1008 17.1235 81.1488 16.6935C80.1968 16.2635 79.4048 15.6615 78.7688 14.8915L77.9188 13.8715L76.6268 16.5575L74.6548 16.7614L74.3828 16.5575C74.7228 15.9695 75.0968 15.3915 75.5048 14.8235C75.9128 14.2575 76.4688 13.6215 77.1708 12.9195C78.6448 11.4915 80.1568 10.0935 81.7108 8.72145C83.2628 7.34945 84.7868 5.90345 86.2828 4.38545C85.1048 3.99945 83.9828 3.66545 82.9168 3.38345C81.8508 3.09945 80.6388 2.80945 79.2788 2.51545L77.8508 7.13945L76.4568 6.93545Z" fill="white"/>
</g>
<path fill-rule="evenodd" clip-rule="evenodd" d="M99.7744 1.46185C99.2524 1.46185 98.6804 1.66585 98.0584 2.07385C97.4344 2.48185 96.8284 3.04785 96.2384 3.77385C95.6484 4.49985 95.1564 5.33185 94.7604 6.27185C94.3624 7.21385 94.1184 8.21585 94.0284 9.28185C95.9084 8.73785 97.4104 8.13185 98.5324 7.46185C99.6544 6.79385 100.46 6.11385 100.946 5.42185C101.434 4.73185 101.678 4.07985 101.678 3.46785C101.678 2.83385 101.502 2.33985 101.15 1.98785C100.8 1.63785 100.34 1.46185 99.7744 1.46185M96.7824 16.9998C95.2864 16.9998 94.0564 16.4898 93.0944 15.4698C92.1304 14.4498 91.6484 12.8518 91.6484 10.6758C91.6484 9.31585 91.8864 7.99585 92.3624 6.71385C92.8384 5.43385 93.4844 4.28985 94.3004 3.27985C95.1164 2.27185 96.0624 1.47385 97.1404 0.883847C98.2164 0.295847 99.3444 -0.000152588 100.522 -0.000152588C101.632 -0.000152588 102.478 0.271847 103.056 0.815847C103.634 1.35985 103.922 2.12985 103.922 3.12785C103.922 3.85385 103.638 4.65185 103.072 5.52385C102.506 6.39785 101.502 7.27585 100.064 8.15985C98.6244 9.04385 96.6124 9.85985 94.0284 10.6078C94.0964 12.0578 94.4364 13.0958 95.0484 13.7178C95.6604 14.3418 96.4864 14.6538 97.5304 14.6538C98.5964 14.6538 99.5144 14.3818 100.284 13.8378C101.054 13.2938 101.666 12.7378 102.12 12.1718L102.902 12.7838C102.198 13.9398 101.316 14.9318 100.25 15.7578C99.1844 16.5858 98.0284 16.9998 96.7824 16.9998" fill="white"/>
<mask id="mask1" mask-type="alpha" maskUnits="userSpaceOnUse" x="105" y="-1" width="14" height="18">
<path fill-rule="evenodd" clip-rule="evenodd" d="M105.895 -0.000152588H118.747V16.8294H105.895V-0.000152588Z" fill="white"/>
</mask>
<g mask="url(#mask1)">
<path fill-rule="evenodd" clip-rule="evenodd" d="M106.371 16.5575L109.261 2.92345L105.895 2.71945L106.031 1.73345L111.641 -0.000549316L112.083 0.339451L111.335 4.89545C111.833 4.03345 112.361 3.23545 112.915 2.49945C113.471 1.76345 114.055 1.16145 114.667 0.695451C115.279 0.231451 115.879 -0.000549316 116.469 -0.000549316C116.945 -0.000549316 117.387 0.0734507 117.795 0.221451C118.203 0.367451 118.521 0.635451 118.747 1.01945C118.725 1.58745 118.561 2.04545 118.253 2.39545C117.949 2.74745 117.511 2.92345 116.945 2.92345C116.651 2.92345 116.327 2.83945 115.977 2.66945C115.623 2.49945 115.279 2.28945 114.939 2.03945C114.123 2.71945 113.375 3.52345 112.695 4.45345C112.015 5.38345 111.369 6.44745 110.757 7.64945L110.349 9.41745C110.099 10.5975 109.867 11.7795 109.653 12.9715C109.437 14.1595 109.215 15.3555 108.989 16.5575L106.711 16.8295L106.371 16.5575Z" fill="white"/>
</g>
<mask id="mask2" mask-type="alpha" maskUnits="userSpaceOnUse" x="117" y="-1" width="16" height="18">
<path fill-rule="evenodd" clip-rule="evenodd" d="M117.726 -0.000152588H132.108V16.9994H117.726V-0.000152588Z" fill="white"/>
</mask>
<g mask="url(#mask2)">
<path fill-rule="evenodd" clip-rule="evenodd" d="M123.778 15.6395C124.616 15.6395 125.376 15.3795 126.056 14.8575C126.736 14.3375 127.32 13.6335 127.808 12.7495C128.294 11.8655 128.674 10.8795 128.946 9.79145C129.218 8.70345 129.354 7.59345 129.354 6.45945C129.354 4.62345 129.066 3.31345 128.486 2.53145C127.908 1.75145 127.156 1.35945 126.226 1.35945C125.16 1.35945 124.192 1.77945 123.32 2.61745C122.446 3.45545 121.76 4.57145 121.262 5.96745C120.764 7.35945 120.514 8.90745 120.514 10.6075C120.514 12.3975 120.82 13.6835 121.432 14.4675C122.044 15.2495 122.826 15.6395 123.778 15.6395M123.404 16.9995C122.362 16.9995 121.41 16.7715 120.548 16.3195C119.686 15.8655 119.002 15.1915 118.49 14.2975C117.982 13.4015 117.726 12.3075 117.726 11.0155C117.726 9.47345 117.958 8.04145 118.424 6.71545C118.888 5.38945 119.528 4.22145 120.344 3.21345C121.16 2.20345 122.106 1.41545 123.184 0.849451C124.26 0.283451 125.4 -0.000549316 126.6 -0.000549316C128.21 -0.000549316 129.53 0.509451 130.562 1.52945C131.592 2.54945 132.108 4.02345 132.108 5.94945C132.108 7.42345 131.882 8.82145 131.428 10.1475C130.974 11.4735 130.346 12.6535 129.542 13.6835C128.736 14.7155 127.812 15.5254 126.77 16.1154C125.728 16.7054 124.606 16.9995 123.404 16.9995" fill="white"/>
</g>
</svg>
