<svg width="26" height="21" viewBox="0 0 26 21" fill="none" xmlns="http://www.w3.org/2000/svg">
<path fill-rule="evenodd" clip-rule="evenodd" d="M1 19.9843H24.7659V3.02205H1V19.9843Z" stroke="black"/>
<path d="M5.27146 9.10759e-05V5.87145" stroke="black"/>
<path d="M20.4941 9.10759e-05V5.87145" stroke="black"/>
<path fill-rule="evenodd" clip-rule="evenodd" d="M10.1382 9.05836C10.1382 8.47245 9.66318 7.99745 9.07727 7.99745C8.4909 7.99745 8.01636 8.47245 8.01636 9.05836C8.01636 9.64427 8.4909 10.1193 9.07727 10.1193C9.66318 10.1193 10.1382 9.64427 10.1382 9.05836" fill="black"/>
<path fill-rule="evenodd" clip-rule="evenodd" d="M13.9438 9.05836C13.9438 8.47245 13.4688 7.99745 12.8829 7.99745C12.2966 7.99745 11.822 8.47245 11.822 9.05836C11.822 9.64427 12.2966 10.1193 12.8829 10.1193C13.4688 10.1193 13.9438 9.64427 13.9438 9.05836" fill="black"/>
<path fill-rule="evenodd" clip-rule="evenodd" d="M17.7495 9.05836C17.7495 8.47245 17.2745 7.99745 16.6886 7.99745C16.1022 7.99745 15.6272 8.47245 15.6272 9.05836C15.6272 9.64427 16.1022 10.1193 16.6886 10.1193C17.2745 10.1193 17.7495 9.64427 17.7495 9.05836" fill="black"/>
<path fill-rule="evenodd" clip-rule="evenodd" d="M21.5552 9.05836C21.5552 8.47245 21.0802 7.99745 20.4943 7.99745C19.9083 7.99745 19.4333 8.47245 19.4333 9.05836C19.4333 9.64427 19.9083 10.1193 20.4943 10.1193C21.0802 10.1193 21.5552 9.64427 21.5552 9.05836" fill="black"/>
<path fill-rule="evenodd" clip-rule="evenodd" d="M6.33251 12.5642C6.33251 11.9783 5.85751 11.5033 5.2716 11.5033C4.68569 11.5033 4.21069 11.9783 4.21069 12.5642C4.21069 13.1501 4.68569 13.6251 5.2716 13.6251C5.85751 13.6251 6.33251 13.1501 6.33251 12.5642" fill="black"/>
<path fill-rule="evenodd" clip-rule="evenodd" d="M10.1382 12.5642C10.1382 11.9783 9.66318 11.5033 9.07727 11.5033C8.4909 11.5033 8.01636 11.9783 8.01636 12.5642C8.01636 13.1501 8.4909 13.6251 9.07727 13.6251C9.66318 13.6251 10.1382 13.1501 10.1382 12.5642" fill="black"/>
<path fill-rule="evenodd" clip-rule="evenodd" d="M13.9438 12.5642C13.9438 11.9783 13.4688 11.5033 12.8829 11.5033C12.2966 11.5033 11.822 11.9783 11.822 12.5642C11.822 13.1501 12.2966 13.6251 12.8829 13.6251C13.4688 13.6251 13.9438 13.1501 13.9438 12.5642" fill="black"/>
<path fill-rule="evenodd" clip-rule="evenodd" d="M17.7495 12.5642C17.7495 11.9783 17.2745 11.5033 16.6886 11.5033C16.1022 11.5033 15.6272 11.9783 15.6272 12.5642C15.6272 13.1501 16.1022 13.6251 16.6886 13.6251C17.2745 13.6251 17.7495 13.1501 17.7495 12.5642" fill="black"/>
<path fill-rule="evenodd" clip-rule="evenodd" d="M21.5552 12.5642C21.5552 11.9783 21.0802 11.5033 20.4943 11.5033C19.9083 11.5033 19.4333 11.9783 19.4333 12.5642C19.4333 13.1501 19.9083 13.6251 20.4943 13.6251C21.0802 13.6251 21.5552 13.1501 21.5552 12.5642" fill="black"/>
<path fill-rule="evenodd" clip-rule="evenodd" d="M6.33251 16.0699C6.33251 15.484 5.85751 15.009 5.2716 15.009C4.68569 15.009 4.21069 15.484 4.21069 16.0699C4.21069 16.6562 4.68569 17.1308 5.2716 17.1308C5.85751 17.1308 6.33251 16.6562 6.33251 16.0699" fill="black"/>
<path fill-rule="evenodd" clip-rule="evenodd" d="M10.1382 16.0699C10.1382 15.484 9.66318 15.009 9.07727 15.009C8.4909 15.009 8.01636 15.484 8.01636 16.0699C8.01636 16.6562 8.4909 17.1308 9.07727 17.1308C9.66318 17.1308 10.1382 16.6562 10.1382 16.0699" fill="black"/>
<path fill-rule="evenodd" clip-rule="evenodd" d="M13.9438 16.0699C13.9438 15.484 13.4688 15.009 12.8829 15.009C12.2966 15.009 11.822 15.484 11.822 16.0699C11.822 16.6562 12.2966 17.1308 12.8829 17.1308C13.4688 17.1308 13.9438 16.6562 13.9438 16.0699" fill="black"/>
</svg>
