<svg width="96" height="99" viewBox="0 0 96 99" fill="none" xmlns="http://www.w3.org/2000/svg">
<path fill-rule="evenodd" clip-rule="evenodd" d="M62.1352 23.1078C61.8589 23.1078 61.5825 23.1799 61.3416 23.3176L44.9607 32.569C44.5937 32.7743 44.3218 33.1239 44.2113 33.5282C44.1008 33.9368 44.156 34.3628 44.3705 34.7299L47.3018 39.7511C47.5825 40.2362 48.1153 40.5421 48.6856 40.5421H70.2903C70.8584 40.5421 71.3868 40.2405 71.6697 39.7577C71.9571 39.2748 71.9615 38.6717 71.6808 38.1844L63.5257 23.9097C63.3179 23.547 62.9642 23.2761 62.5597 23.1646C62.4204 23.1275 62.2789 23.1078 62.1352 23.1078ZM52.2801 43.5443C51.7098 43.5443 51.1792 43.8458 50.8963 44.3331C50.6111 44.8203 50.6111 45.4234 50.8963 45.9128L55.1849 53.2654C58.1737 59.1147 70.0935 67.9684 75.0763 71.5016C75.3527 71.696 75.6732 71.7987 76.0092 71.7987C76.2568 71.7987 76.5044 71.7397 76.7233 71.6305C77.2538 71.3705 77.5921 70.8417 77.6075 70.2561C77.7402 64.5969 77.7689 50.7636 75.1957 44.5275C74.9481 43.931 74.3689 43.5443 73.7168 43.5443H52.2801ZM82.0156 99C81.4342 99 80.9124 98.681 80.6516 98.1697C80.278 97.429 80.5831 96.5266 81.3325 96.1551L84.7789 94.453C85.1591 94.2629 85.4443 93.9395 85.5791 93.5396C85.714 93.1398 85.683 92.7115 85.4929 92.3335L77.906 77.3334C77.7822 77.0908 77.5943 76.8789 77.3666 76.7303C73.9246 74.4492 56.5533 62.6741 52.5233 54.7119L52.4791 54.6289C42.036 36.7336 40.451 34.0198 40.2078 33.6003C40.2012 33.5806 40.1967 33.5566 40.1945 33.5522C40.1702 33.4583 40.1437 33.3577 40.1127 33.2594C40.0752 33.1545 40.0376 33.0628 40 32.971V32.9688C40.0155 32.8727 40.0265 32.7787 40.0332 32.6848C40.042 32.5908 40.0442 32.499 40.0464 32.4073C40.0928 32.3264 40.1393 32.2456 40.1813 32.1582C40.2189 32.0839 40.2542 32.003 40.2896 31.92C40.3559 31.8676 40.4267 31.8086 40.4886 31.7496C40.5505 31.6928 40.6101 31.6338 40.6698 31.5748C40.6986 31.5442 40.7317 31.5114 40.7583 31.4852C41.1296 31.2754 62.0225 19.4741 62.4558 19.2316C62.5707 19.201 62.6724 19.1704 62.7719 19.1311L62.9266 19.0699C62.9863 19.0459 63.0482 19.0197 63.0991 19C63.1985 19.0131 63.3002 19.0262 63.4019 19.0328C63.4881 19.0393 63.5832 19.0415 63.676 19.0415H63.7136C63.7291 19.0503 63.9214 19.1595 63.9922 19.1967C64.0828 19.2447 64.1734 19.2841 64.2619 19.3212C64.284 19.3518 64.4652 19.59 64.4652 19.59C64.536 19.6817 64.6133 19.7626 64.6929 19.8412C65.449 21.1654 77.3843 42.0628 77.5103 42.2792C81.6066 50.3768 80.6848 71.1257 80.4593 75.203C80.4438 75.4761 80.5013 75.7514 80.6251 75.9961L88.2098 90.9897C88.4839 91.5272 89.0322 91.8637 89.6401 91.8637C89.8921 91.8637 90.1309 91.8069 90.3541 91.6977L93.8005 89.9934C94.015 89.8885 94.2427 89.8339 94.477 89.8339C95.0584 89.8339 95.5779 90.1529 95.841 90.6664C96.02 91.0247 96.0488 91.4333 95.9227 91.8113C95.7945 92.1915 95.5226 92.4996 95.1579 92.6787L82.692 98.8427C82.4798 98.9454 82.2521 99 82.0156 99Z" fill="black"/>
<path fill-rule="evenodd" clip-rule="evenodd" d="M48.5 9C47.6725 9 47 8.33906 47 7.52575V1.47425C47 0.660944 47.6725 0 48.5 0C49.3253 0 50 0.660944 50 1.47425V7.52575C50 8.33906 49.3253 9 48.5 9Z" fill="black"/>
<path fill-rule="evenodd" clip-rule="evenodd" d="M35.5208 13C34.9564 13 34.4459 12.6867 34.1939 12.1845L31.1565 6.13305C30.9799 5.78112 30.9519 5.38197 31.0768 5.00644C31.2018 4.63305 31.4646 4.33047 31.8179 4.15451C32.0268 4.0515 32.2487 4 32.4792 4C33.0457 4 33.5519 4.3133 33.8061 4.8176L36.8435 10.867C37.0201 11.2189 37.0481 11.618 36.9232 11.9914C36.7982 12.3648 36.5354 12.6695 36.18 12.8455C35.9732 12.9485 35.7513 13 35.5208 13Z" fill="black"/>
<path fill-rule="evenodd" clip-rule="evenodd" d="M60.4775 13C60.2469 13 60.025 12.9485 59.8181 12.8455C59.4647 12.6695 59.2018 12.367 59.0769 11.9914C58.9519 11.618 58.9799 11.2167 59.1566 10.8648L62.1948 4.81545C62.447 4.31116 62.9533 4 63.52 4C63.7506 4 63.9747 4.0515 64.1837 4.15665C64.912 4.51931 65.2094 5.40558 64.8431 6.13305L61.8048 12.1845C61.5527 12.6867 61.0442 13 60.4775 13Z" fill="black"/>
<path fill-rule="evenodd" clip-rule="evenodd" d="M59.5 52C58.6725 52 58 51.328 58 50.5011C58 49.6742 58.6725 49 59.5 49C60.3275 49 61 49.6742 61 50.5011C61 51.328 60.3275 52 59.5 52Z" fill="black"/>
<path fill-rule="evenodd" clip-rule="evenodd" d="M71.5 53C70.6725 53 70 52.328 70 51.5011C70 50.6742 70.6725 50 71.5 50C72.3275 50 73 50.6742 73 51.5011C73 52.328 72.3275 53 71.5 53Z" fill="black"/>
<path fill-rule="evenodd" clip-rule="evenodd" d="M71.5 63C70.6725 63 70 62.328 70 61.5011C70 60.6742 70.6725 60 71.5 60C72.3253 60 73 60.6742 73 61.5011C73 62.328 72.3253 63 71.5 63Z" fill="black"/>
<mask id="mask0" mask-type="alpha" maskUnits="userSpaceOnUse" x="0" y="18" width="46" height="81">
<path fill-rule="evenodd" clip-rule="evenodd" d="M0 18.8494H45.4728V99H0V18.8494Z" fill="white"/>
</mask>
<g mask="url(#mask0)">
<path fill-rule="evenodd" clip-rule="evenodd" d="M13.8569 99C13.6225 99 13.3969 98.9474 13.1866 98.8423L0.832322 92.6666C0.473084 92.4871 0.205846 92.1785 0.0766079 91.7975C-0.0504397 91.4166 -0.0197731 91.0094 0.159846 90.6504C0.418322 90.1359 0.935275 89.8163 1.51137 89.8163C1.74356 89.8163 1.96918 89.871 2.17947 89.9761L5.59442 91.6837C5.81347 91.791 6.05661 91.8501 6.30194 91.8501C6.90651 91.8501 7.44975 91.5151 7.71918 90.9744L15.2347 75.9522C15.3574 75.7048 15.4143 75.4311 15.399 75.1575C15.1756 71.079 14.2621 50.3299 18.2795 42.2606L31.0368 19.6616C31.0434 19.655 31.0499 19.6484 31.0565 19.644C31.131 19.5674 31.2077 19.4864 31.2821 19.3989C31.3259 19.3463 31.3719 19.2872 31.4179 19.2281C31.4179 19.2281 31.453 19.1821 31.4639 19.1668C31.488 19.1537 31.7115 19.0464 31.7115 19.0464C31.7903 19.0048 31.8604 18.9654 31.9305 18.9238L31.9612 18.9063C31.9853 18.9041 32.2459 18.8844 32.2459 18.8844C32.3182 18.8756 32.3949 18.8669 32.4672 18.8559C32.4891 18.8537 32.5066 18.8516 32.5198 18.8494C32.5329 18.8537 32.5548 18.8625 32.5701 18.8669C32.6512 18.8953 32.73 18.9194 32.8089 18.9435C32.9118 18.972 33.0236 18.9982 33.1375 19.0201L42.1469 23.497C42.8873 23.8692 43.1917 24.7755 42.8194 25.5176C42.5609 26.0277 42.0439 26.3473 41.47 26.3473C41.2357 26.3473 41.01 26.2948 40.7998 26.1897L34.3466 22.9847C34.1254 22.8753 33.8888 22.8184 33.6391 22.8184C33.0696 22.8184 32.5417 23.1249 32.2591 23.6218L24.1018 38.0683C23.8258 38.5586 23.8301 39.1607 24.1127 39.6445C24.3953 40.1283 24.9188 40.4304 25.4796 40.4304H38.0682C38.8984 40.4304 39.5731 41.1047 39.5731 41.9344C39.5731 42.7641 38.8984 43.4383 38.0682 43.4383H21.5696C21.4491 43.4383 21.333 43.4756 21.2366 43.5456C21 43.7164 20.8226 43.9287 20.7087 44.1805C18.056 50.146 18.0867 64.3648 18.2225 70.2012C18.2357 70.7901 18.5708 71.3177 19.0987 71.5804C19.3178 71.6898 19.5609 71.7467 19.8062 71.7467C20.1392 71.7467 20.4568 71.646 20.7284 71.4534C25.5168 68.0251 36.7364 59.6208 40.0769 53.8611C40.1886 53.664 42.5258 49.2922 42.62 49.104C42.8785 48.5895 43.3933 48.2721 43.9672 48.2721C44.2016 48.2721 44.4272 48.3246 44.6397 48.4297C44.9989 48.6092 45.2683 48.9201 45.3954 49.301C45.5224 49.6819 45.4917 50.0891 45.3121 50.4481C45.2157 50.643 42.8807 55.0191 42.7668 55.2184C38.2544 63.1826 21.7908 74.4591 18.4657 76.6856C18.2378 76.8366 18.0517 77.049 17.929 77.292L10.4113 92.3207C10.2229 92.6995 10.1922 93.1264 10.3258 93.5292C10.4595 93.9298 10.742 94.256 11.1188 94.4443L14.5338 96.1496C14.8952 96.3291 15.1624 96.6378 15.2895 97.0209C15.4165 97.4019 15.388 97.809 15.2062 98.1681C14.9499 98.6803 14.433 99 13.8569 99Z" fill="black"/>
</g>
<path fill-rule="evenodd" clip-rule="evenodd" d="M36.5 52C37.3275 52 38 51.328 38 50.5011C38 49.6742 37.3275 49 36.5 49C35.6725 49 35 49.6742 35 50.5011C35 51.328 35.6725 52 36.5 52Z" fill="black"/>
<path fill-rule="evenodd" clip-rule="evenodd" d="M24.5 53C25.3275 53 26 52.328 26 51.5011C26 50.6742 25.3275 50 24.5 50C23.6725 50 23 50.6742 23 51.5011C23 52.328 23.6725 53 24.5 53Z" fill="black"/>
<path fill-rule="evenodd" clip-rule="evenodd" d="M24.5 63C25.3275 63 26 62.328 26 61.5011C26 60.6742 25.3275 60 24.5 60C23.6725 60 23 60.6742 23 61.5011C23 62.328 23.6725 63 24.5 63Z" fill="black"/>
</svg>
