<svg width="24" height="30" viewBox="0 0 24 30" fill="none" xmlns="http://www.w3.org/2000/svg">
<path fill-rule="evenodd" clip-rule="evenodd" d="M22.5785 14.5723C17.119 19.1682 11.6595 9.97638 6.19946 14.5723V2.47786C11.6595 -2.11854 17.119 7.07376 22.5785 2.47786V14.5723Z" fill="#EAEAEA"/>
<path fill-rule="evenodd" clip-rule="evenodd" d="M22.5785 14.5723C17.119 19.1682 11.6595 9.97638 6.19946 14.5723V2.47786C11.6595 -2.11854 17.119 7.07376 22.5785 2.47786V14.5723Z" stroke="black"/>
<path d="M6.15069 -4.57764e-05V25.2186" stroke="black"/>
<path fill-rule="evenodd" clip-rule="evenodd" d="M16.9195 18.8731C11.46 23.469 6.00053 14.2772 0.540527 18.8731V6.77872C6.00053 2.18233 11.46 11.3741 16.9195 6.77872V18.8731Z" fill="#EAEAEA"/>
<path fill-rule="evenodd" clip-rule="evenodd" d="M16.9195 18.8731C11.46 23.469 6.00053 14.2772 0.540527 18.8731V6.77872C6.00053 2.18233 11.46 11.3741 16.9195 6.77872V18.8731Z" stroke="black"/>
<path d="M0.61475 4.30081V29.5195" stroke="black"/>
</svg>
