<svg width="115" height="40" viewBox="0 0 115 40" fill="none" xmlns="http://www.w3.org/2000/svg">
<path fill-rule="evenodd" clip-rule="evenodd" d="M55.4453 11.1453H57.9784L64.9586 23.2798L67.0499 27.2858H67.1678C67.0499 25.3418 66.8731 23.1621 66.8731 21.1301V11.1453H69.2V30.4667H66.6672L59.6573 18.3023L57.566 14.3262H57.4483C57.5954 16.2701 57.7722 18.3317 57.7722 20.3644V30.4667H55.4453V11.1453Z" fill="white"/>
<path fill-rule="evenodd" clip-rule="evenodd" d="M71.8218 36.3278L72.293 34.4133C72.5878 34.5018 73.0294 34.6193 73.3827 34.6193C75.0027 34.6193 76.0335 33.3237 76.6225 31.5563L76.9466 30.4961L71.2036 16.1524H73.7068L76.6225 24.0752C77.0645 25.3124 77.565 26.785 78.0071 28.1103H78.1248C78.5369 26.8145 78.9496 25.3418 79.3323 24.0752L81.8946 16.1524H84.251L78.8611 31.6448C77.8597 34.4722 76.3871 36.6223 73.5009 36.6223C72.8523 36.6223 72.293 36.5046 71.8218 36.3278" fill="white"/>
<path fill-rule="evenodd" clip-rule="evenodd" d="M86.1956 27.5801V11.1437H88.6105V27.7571C88.6105 28.5228 88.9346 28.8173 89.2882 28.8173C89.4353 28.8173 89.553 28.8173 89.8183 28.7582L90.1422 30.5844C89.8183 30.7318 89.4059 30.8201 88.7579 30.8201C86.9319 30.8201 86.1956 29.6713 86.1956 27.5801" fill="white"/>
<path fill-rule="evenodd" clip-rule="evenodd" d="M100.245 26.9618V22.9855C95.4731 23.5747 93.8239 24.7526 93.8239 26.5786C93.8239 28.1988 94.9432 28.8763 96.357 28.8763C97.7411 28.8763 98.8604 28.1988 100.245 26.9618M91.4678 26.7556C91.4678 23.6333 94.1478 22.0724 100.245 21.3949C100.245 19.5689 99.6556 17.8018 97.2993 17.8018C95.6501 17.8018 94.1478 18.5673 93.0287 19.3333L92.0862 17.6544C93.4115 16.8004 95.4144 15.7988 97.7117 15.7988C101.217 15.7988 102.689 18.1255 102.689 21.6894V30.4666H100.686L100.48 28.7581H100.392C99.037 29.8774 97.4466 30.8199 95.6501 30.8199C93.2643 30.8199 91.4678 29.3179 91.4678 26.7556" fill="white"/>
<path fill-rule="evenodd" clip-rule="evenodd" d="M104.369 28.8467L105.576 27.2269C106.813 28.2283 108.08 28.935 109.788 28.935C111.673 28.935 112.616 27.9336 112.616 26.6966C112.616 25.2239 110.907 24.5761 109.346 23.9869C107.314 23.2506 105.164 22.2789 105.164 19.8635C105.164 17.5662 106.99 15.7989 110.112 15.7989C111.879 15.7989 113.44 16.5352 114.559 17.4189L113.381 18.9506C112.409 18.2143 111.379 17.6839 110.112 17.6839C108.316 17.6839 107.491 18.6559 107.491 19.7458C107.491 21.1007 108.963 21.6012 110.583 22.2198C112.645 22.9855 114.942 23.8398 114.942 26.5494C114.942 28.8763 113.087 30.82 109.7 30.82C107.668 30.82 105.724 29.9658 104.369 28.8467" fill="white"/>
<path fill-rule="evenodd" clip-rule="evenodd" d="M0 20.5295L17.8717 31.6722V39.8837L0 28.7414V20.5295ZM20.6211 6.10352e-05L38.4929 11.1426V19.3543L20.6211 8.21179V6.10352e-05ZM20.6211 11.1203L38.4929 22.2628V30.4745L20.6211 19.332V11.1203ZM33.9161 38.4849L20.6211 30.281V22.0693L38.4929 33.2118V35.9311C38.4929 37.5886 37.1492 38.932 35.492 38.932C34.9354 38.932 34.3897 38.7773 33.9161 38.4849V38.4849ZM4.43379 0.968107L17.8717 9.26029V17.472L0 6.32949V3.44213C0 1.83661 1.30161 0.535004 2.90713 0.535004C3.44644 0.535004 3.97494 0.684889 4.43379 0.968107V0.968107ZM0 9.40926L17.8717 20.552V28.7637L0 17.6212V9.40926Z" fill="#00E4BF"/>
</svg>
