<svg width="120" height="146" viewBox="0 0 120 146" fill="none" xmlns="http://www.w3.org/2000/svg">
<mask id="mask0" mask-type="alpha" maskUnits="userSpaceOnUse" x="0" y="94" width="28" height="40">
<path fill-rule="evenodd" clip-rule="evenodd" d="M0.0175781 94.2766H27.7256V133.223H0.0175781V94.2766Z" fill="white"/>
</mask>
<g mask="url(#mask0)">
<path fill-rule="evenodd" clip-rule="evenodd" d="M0 94.2766H5.10583L19.1764 118.736L23.3916 126.811H23.6292C23.3916 122.893 23.0356 118.499 23.0356 114.403V94.2766H27.7255V133.223H22.62L8.49 108.703L4.27456 100.688H4.03748C4.33398 104.606 4.69019 108.762 4.69019 112.859V133.223H0V94.2766" fill="white"/>
</g>
<path fill-rule="evenodd" clip-rule="evenodd" d="M33.0105 145.037L33.9606 141.178C34.5545 141.356 35.4448 141.594 36.157 141.594C39.4223 141.594 41.5005 138.982 42.6874 135.419L43.341 133.282L31.7642 104.369H36.8103L42.6874 120.34C43.5786 122.833 44.5873 125.802 45.4782 128.473H45.7156C46.5466 125.861 47.3781 122.893 48.1497 120.34L53.3149 104.369H58.0643L47.1999 135.598C45.1812 141.297 42.2132 145.631 36.3946 145.631C35.0883 145.631 33.9606 145.393 33.0105 145.037" fill="white"/>
<path fill-rule="evenodd" clip-rule="evenodd" d="M61.9839 127.404V94.2734H66.8518V127.761C66.8518 129.304 67.5051 129.898 68.2181 129.898C68.5146 129.898 68.7519 129.898 69.2861 129.779L69.9394 133.461C69.2861 133.757 68.4551 133.935 67.1491 133.935C63.4682 133.935 61.9839 131.62 61.9839 127.404" fill="white"/>
<path fill-rule="evenodd" clip-rule="evenodd" d="M90.3029 126.158V118.143C80.6848 119.33 77.3606 121.705 77.3606 125.386C77.3606 128.652 79.6165 130.017 82.4665 130.017C85.2568 130.017 87.5126 128.652 90.3029 126.158ZM72.6113 125.743C72.6113 119.449 78.0137 116.303 90.3029 114.937C90.3029 111.256 89.1157 107.694 84.3661 107.694C81.0416 107.694 78.0137 109.237 75.7575 110.781L73.8576 107.397C76.5291 105.675 80.5666 103.657 85.1973 103.657C92.2622 103.657 95.2307 108.347 95.2307 115.531V133.223H91.1936L90.7779 129.779H90.6C87.8688 132.035 84.6629 133.935 81.0416 133.935C76.2326 133.935 72.6113 130.907 72.6113 125.743V125.743Z" fill="white"/>
<path fill-rule="evenodd" clip-rule="evenodd" d="M98.6165 129.958L101.05 126.692C103.544 128.711 106.097 130.135 109.54 130.135C113.34 130.135 115.239 128.117 115.239 125.624C115.239 122.655 111.796 121.349 108.649 120.162C104.553 118.677 100.219 116.718 100.219 111.85C100.219 107.219 103.9 103.657 110.193 103.657C113.755 103.657 116.902 105.141 119.158 106.922L116.783 110.009C114.824 108.525 112.746 107.456 110.193 107.456C106.572 107.456 104.909 109.416 104.909 111.613C104.909 114.343 107.878 115.353 111.143 116.599C115.299 118.143 119.93 119.865 119.93 125.327C119.93 130.017 116.189 133.935 109.362 133.935C105.266 133.935 101.347 132.213 98.6165 129.958" fill="white"/>
<path fill-rule="evenodd" clip-rule="evenodd" d="M19.3159 41.3819L55.3404 63.842V80.3948L19.3159 57.9344V41.3819ZM60.8825 0L96.907 22.4604V39.0128L60.8825 16.5527V0ZM60.8825 22.415L96.907 44.8753V61.4281L60.8825 38.968V22.415ZM87.6813 77.5748L60.8825 61.0381V44.4853L96.907 66.9457V72.427C96.907 75.7678 94.1985 78.4762 90.8578 78.4762C89.7361 78.4762 88.636 78.164 87.6813 77.5748ZM28.2533 1.95117L55.3404 18.6658V35.2185L19.3159 12.7584V6.93816C19.3159 3.70165 21.9396 1.07825 25.1758 1.07825C26.2628 1.07825 27.3285 1.38058 28.2533 1.95117ZM19.3159 18.9667L55.3404 41.4268V57.9795L19.3159 35.5194V18.9667V18.9667Z" fill="#00E5BF"/>
</svg>
